<svg width="215" height="44" viewBox="0 0 215 44" fill="none" xmlns="http://www.w3.org/2000/svg">
<path fill-rule="evenodd" clip-rule="evenodd" d="M191.73 0C179.268 0 169.174 10.094 169.174 22.5565C169.174 32.5377 175.63 40.9682 184.597 43.9569C185.724 44.1543 186.147 43.4776 186.147 42.8855C186.147 42.3498 186.119 40.5734 186.119 38.6843C180.452 39.7276 178.986 37.3028 178.535 36.034C178.281 35.3855 177.181 33.3836 176.222 32.8479C175.433 32.4249 174.305 31.3817 176.194 31.3535C177.971 31.3253 179.239 32.9888 179.662 33.6655C181.692 37.0772 184.935 36.1185 186.232 35.5264C186.429 34.0603 187.021 33.0734 187.67 32.5095C182.651 31.9456 177.407 30.0001 177.407 21.3722C177.407 18.9192 178.281 16.8892 179.719 15.3102C179.493 14.7463 178.704 12.4343 179.944 9.33274C179.944 9.33274 181.833 8.74063 186.147 11.6448C187.952 11.1373 189.869 10.8835 191.786 10.8835C193.704 10.8835 195.621 11.1373 197.426 11.6448C201.739 8.71243 203.629 9.33274 203.629 9.33274C204.869 12.4343 204.08 14.7463 203.854 15.3102C205.292 16.8892 206.166 18.891 206.166 21.3722C206.166 30.0283 200.894 31.9456 195.875 32.5095C196.692 33.2144 197.397 34.5678 197.397 36.6824C197.397 39.6994 197.369 42.1242 197.369 42.8855C197.369 43.4776 197.792 44.1825 198.92 43.9569C203.398 42.4451 207.289 39.5672 210.045 35.7282C212.802 31.8893 214.285 27.2826 214.287 22.5565C214.287 10.094 204.192 0 191.73 0Z" fill="white"/>
<path d="M129.7 8.44159C127.902 9.23284 125.972 9.76747 123.942 10.0091C126.036 8.76406 127.603 6.80449 128.35 4.49603C126.383 5.65723 124.229 6.47458 121.983 6.91256C120.473 5.31052 118.473 4.24866 116.293 3.89185C114.113 3.53503 111.876 3.90322 109.928 4.93925C107.981 5.97527 106.432 7.62118 105.522 9.62142C104.613 11.6217 104.393 13.8643 104.898 16.0012C100.911 15.8023 97.0105 14.7728 93.45 12.9793C89.8895 11.1859 86.7483 8.66862 84.2303 5.59095C83.3694 7.06653 82.8743 8.77734 82.8743 10.5994C82.8734 12.2396 83.2799 13.8547 84.0579 15.3014C84.8359 16.7481 85.9612 17.9816 87.3341 18.8925C85.7419 18.8422 84.1849 18.4147 82.7925 17.6458V17.7741C82.7924 20.0746 83.5933 22.3042 85.0594 24.0848C86.5255 25.8654 88.5665 27.0871 90.836 27.5428C89.359 27.94 87.8105 27.9985 86.3074 27.7139C86.9477 29.6933 88.195 31.4243 89.8747 32.6644C91.5544 33.9045 93.5823 34.5917 95.6746 34.6298C92.1228 37.4001 87.7363 38.9028 83.2209 38.8962C82.421 38.8964 81.6218 38.85 80.8274 38.7572C85.4109 41.6852 90.7464 43.2391 96.1955 43.2331C114.642 43.2331 124.726 28.0539 124.726 14.8892C124.726 14.4615 124.715 14.0295 124.695 13.6018C126.657 12.1925 128.35 10.4473 129.695 8.44801L129.7 8.44159Z" fill="white"/>
<path fill-rule="evenodd" clip-rule="evenodd" d="M12.1523 2.00394C14.3572 1.90244 15.0602 1.87988 20.6768 1.87988C26.2933 1.87988 26.9963 1.90432 29.1993 2.00394C31.4024 2.10357 32.9061 2.45507 34.2219 2.96447C35.5997 3.48515 36.8497 4.29906 37.8836 5.3517C38.9362 6.38366 39.7482 7.63178 40.267 9.01149C40.7783 10.3273 41.128 11.831 41.2295 14.0303C41.331 16.239 41.3535 16.942 41.3535 22.5566C41.3535 28.1732 41.3291 28.8762 41.2295 31.0811C41.1298 33.2804 40.7783 34.7841 40.267 36.0999C39.7482 37.4798 38.9349 38.73 37.8836 39.7635C36.8497 40.8161 35.5997 41.6281 34.2219 42.1469C32.9061 42.6582 31.4024 43.0078 29.2031 43.1093C26.9963 43.2108 26.2933 43.2334 20.6768 43.2334C15.0602 43.2334 14.3572 43.209 12.1523 43.1093C9.95304 43.0097 8.44928 42.6582 7.13348 42.1469C5.75363 41.6281 4.50344 40.8147 3.46994 39.7635C2.41802 38.7309 1.60398 37.4813 1.08459 36.1018C0.57519 34.786 0.225565 33.2822 0.124061 31.083C0.0225564 28.8743 0 28.1713 0 22.5566C0 16.9401 0.0244361 16.2371 0.124061 14.0341C0.223685 11.831 0.57519 10.3273 1.08459 9.01149C1.60475 7.63193 2.4194 6.38237 3.47182 5.34982C4.50385 4.29813 5.75279 3.4841 7.1316 2.96447C8.4474 2.45507 9.95116 2.10545 12.1504 2.00394H12.1523ZM29.032 5.72576C26.8516 5.62614 26.1975 5.60546 20.6768 5.60546C15.1561 5.60546 14.5019 5.62614 12.3215 5.72576C10.3045 5.81787 9.21056 6.15433 8.48123 6.43817C7.51694 6.81411 6.82709 7.2596 6.1034 7.98329C5.4174 8.65068 4.88945 9.46314 4.55829 10.3611C4.27445 11.0904 3.93798 12.1844 3.84588 14.2014C3.74625 16.3818 3.72558 17.0359 3.72558 22.5566C3.72558 28.0773 3.74625 28.7315 3.84588 30.9119C3.93798 32.9289 4.27445 34.0228 4.55829 34.7522C4.88911 35.6488 5.41731 36.4627 6.1034 37.13C6.7707 37.8161 7.58461 38.3443 8.48123 38.6751C9.21056 38.959 10.3045 39.2954 12.3215 39.3875C14.5019 39.4871 15.1542 39.5078 20.6768 39.5078C26.1993 39.5078 26.8516 39.4871 29.032 39.3875C31.049 39.2954 32.143 38.959 32.8723 38.6751C33.8366 38.2992 34.5264 37.8537 35.2501 37.13C35.9362 36.4627 36.4644 35.6488 36.7952 34.7522C37.0791 34.0228 37.4155 32.9289 37.5076 30.9119C37.6073 28.7315 37.6279 28.0773 37.6279 22.5566C37.6279 17.0359 37.6073 16.3818 37.5076 14.2014C37.4155 12.1844 37.0791 11.0904 36.7952 10.3611C36.4193 9.39682 35.9738 8.70697 35.2501 7.98329C34.5827 7.29733 33.7702 6.76939 32.8723 6.43817C32.143 6.15433 31.049 5.81787 29.032 5.72576ZM18.0358 28.9307C19.5107 29.5447 21.153 29.6276 22.6823 29.1652C24.2115 28.7028 25.5328 27.7238 26.4204 26.3955C27.308 25.0671 27.707 23.4718 27.549 21.882C27.3911 20.2922 26.6862 18.8066 25.5546 17.6788C24.8332 16.9579 23.961 16.4059 23.0007 16.0625C22.0404 15.7192 21.0159 15.593 20.001 15.6931C18.9861 15.7932 18.006 16.1171 17.1313 16.6415C16.2565 17.1658 15.509 17.8776 14.9423 18.7255C14.3757 19.5735 14.0042 20.5365 13.8544 21.5453C13.7046 22.5541 13.7804 23.5835 14.0762 24.5595C14.3721 25.5355 14.8807 26.4337 15.5653 27.1896C16.25 27.9454 17.0937 28.5401 18.0358 28.9307ZM13.1617 15.0416C14.1486 14.0547 15.3202 13.2718 16.6096 12.7377C17.8991 12.2036 19.2811 11.9287 20.6768 11.9287C22.0724 11.9287 23.4544 12.2036 24.7439 12.7377C26.0333 13.2718 27.2049 14.0547 28.1918 15.0416C29.1787 16.0285 29.9616 17.2001 30.4957 18.4895C31.0298 19.779 31.3047 21.161 31.3047 22.5566C31.3047 23.9523 31.0298 25.3343 30.4957 26.6238C29.9616 27.9132 29.1787 29.0848 28.1918 30.0717C26.1987 32.0648 23.4955 33.1845 20.6768 33.1845C17.8581 33.1845 15.1548 32.0648 13.1617 30.0717C11.1686 28.0786 10.0489 25.3753 10.0489 22.5566C10.0489 19.7379 11.1686 17.0347 13.1617 15.0416ZM33.6618 13.5115C33.9063 13.2808 34.1021 13.0034 34.2375 12.6957C34.3729 12.3879 34.4452 12.0562 34.4501 11.72C34.455 11.3838 34.3924 11.0501 34.2661 10.7386C34.1397 10.427 33.952 10.144 33.7143 9.9063C33.4766 9.66857 33.1936 9.48096 32.882 9.35456C32.5705 9.22817 32.2368 9.16558 31.9006 9.17048C31.5644 9.17538 31.2327 9.24768 30.925 9.3831C30.6172 9.51851 30.3398 9.7143 30.1091 9.95886C29.6605 10.4345 29.4148 11.0662 29.4243 11.72C29.4339 12.3738 29.6978 12.9981 30.1602 13.4605C30.6225 13.9228 31.2468 14.1867 31.9006 14.1963C32.5544 14.2058 33.1861 13.9602 33.6618 13.5115Z" fill="white"/>
</svg>
