<svg width="24" height="18" viewBox="0 0 24 18" fill="none" xmlns="http://www.w3.org/2000/svg">
<path fill-rule="evenodd" clip-rule="evenodd" d="M2.46262 15.8195C1.47429 14.895 0.661051 14.1205 0.655426 14.0983C0.646764 14.064 4.23715 10.6954 4.32306 10.6572C4.33971 10.6498 4.35333 11.0451 4.35333 11.5355C4.35333 12.3469 4.35925 12.43 4.41895 12.4563C4.45507 12.4723 4.77146 12.4853 5.12209 12.4852C5.62569 12.4852 5.81345 12.4695 6.01596 12.4104C6.73038 12.2021 7.17019 11.9 7.83781 11.1594C8.10009 10.8684 8.78887 10.1041 9.3684 9.4609C9.94794 8.81771 11.3896 7.25543 12.5722 5.98918C14.8617 3.53753 15.0025 3.40502 15.6904 3.05399C16.375 2.70465 16.6827 2.64283 18.1348 2.56303C18.7742 2.52791 19.335 2.49109 19.381 2.48125C19.4639 2.46351 19.4647 2.45633 19.4747 1.61369L19.4848 0.764042L21.3143 2.46685C22.3206 3.40341 23.139 4.18269 23.1331 4.19858C23.1272 4.21443 22.2913 5.00101 21.2755 5.94651L19.4286 7.66558V6.80371V5.94184L19.1942 5.91792C19.0653 5.90478 18.6814 5.88232 18.3411 5.868C17.8338 5.84663 17.6784 5.85381 17.4786 5.90776C17.1434 5.99829 16.7498 6.21528 16.5035 6.44538C16.3899 6.55139 15.6137 7.38479 14.7784 8.29739C13.9431 9.20995 12.2641 11.0162 11.0472 12.3111C8.65848 14.8531 8.52933 14.9733 7.84693 15.2891C7.22292 15.5779 6.78322 15.6572 5.30314 15.7479C4.80461 15.7784 4.37849 15.8155 4.35625 15.8303C4.32948 15.8481 4.31583 16.1356 4.31583 16.6815C4.31583 17.1349 4.30315 17.5046 4.2877 17.5031C4.27225 17.5017 3.45095 16.744 2.46262 15.8195ZM19.4661 15.9851C19.4661 15.4759 19.4577 15.0504 19.4475 15.0394C19.4373 15.0284 19.2896 15.0458 19.1194 15.078C18.6443 15.168 17.5124 15.1635 17.066 15.0698C15.8197 14.8082 14.8223 14.1833 13.766 13.0023C13.394 12.5864 12.716 11.7106 12.716 11.646C12.716 11.5899 14.9008 9.43557 14.9267 9.46622C14.943 9.48545 15.1075 9.69212 15.2924 9.9254C16.3828 11.3018 17.1427 11.8299 18.1161 11.8877C18.4909 11.9099 19.0273 11.8204 19.3255 11.6859L19.4661 11.6224V10.8542C19.4661 10.4316 19.4746 10.0859 19.485 10.0859C19.5193 10.0859 23.1412 13.4745 23.1388 13.5044C23.1366 13.5322 19.6921 16.7382 19.5386 16.8554C19.4676 16.9096 19.4661 16.8922 19.4661 15.9851ZM8.48395 7.36056C8.29105 7.12816 7.99055 6.75261 7.81621 6.52599C7.44087 6.03801 7.27429 5.87155 6.92212 5.63222C6.31694 5.22098 5.51469 5.0867 4.53018 5.23179L4.35472 5.25768L4.34463 6.15294L4.33458 7.0482L2.49705 5.33712C1.4864 4.39605 0.654639 3.61217 0.648714 3.59511C0.642751 3.5781 1.46964 2.79022 2.48625 1.84427L4.33458 0.124363L4.34463 1.07511C4.35397 1.95513 4.35952 2.02433 4.41963 2.00489C4.60983 1.94351 5.36217 1.89238 5.76174 1.91367C7.09328 1.98469 8.20817 2.48202 9.37125 3.52386C9.70564 3.82335 10.371 4.56114 10.7511 5.05375L11.0532 5.44531L9.96181 6.61636C9.36158 7.26043 8.86244 7.78643 8.85258 7.78522C8.84272 7.78401 8.67682 7.59291 8.48395 7.36056Z" fill="white"/>
</svg>
