<svg width="24" height="18" viewBox="0 0 24 18" fill="none" xmlns="http://www.w3.org/2000/svg">
<path fill-rule="evenodd" clip-rule="evenodd" d="M2.46262 16.0646C1.47429 15.1401 0.661051 14.3655 0.655426 14.3433C0.646764 14.309 4.23715 10.9404 4.32306 10.9023C4.33971 10.8949 4.35333 11.2901 4.35333 11.7806C4.35333 12.592 4.35925 12.675 4.41895 12.7013C4.45507 12.7173 4.77146 12.7303 5.12209 12.7303C5.62569 12.7303 5.81345 12.7146 6.01596 12.6555C6.73038 12.4471 7.17019 12.1451 7.83781 11.4044C8.10009 11.1135 8.78887 10.3491 9.3684 9.70595C9.94794 9.06277 11.3896 7.50049 12.5722 6.23423C14.8617 3.78259 15.0025 3.65007 15.6904 3.29904C16.375 2.94971 16.6827 2.88789 18.1348 2.80809C18.7742 2.77296 19.335 2.73615 19.381 2.72631C19.4639 2.70856 19.4647 2.70139 19.4747 1.85875L19.4848 1.0091L21.3143 2.71191C22.3206 3.64846 23.139 4.42775 23.1331 4.44363C23.1272 4.45948 22.2913 5.24607 21.2755 6.19157L19.4286 7.91063V7.04876V6.18689L19.1942 6.16298C19.0653 6.14983 18.6814 6.12737 18.3411 6.11306C17.8338 6.09169 17.6784 6.09886 17.4786 6.15282C17.1434 6.24335 16.7498 6.46034 16.5035 6.69043C16.3899 6.79645 15.6137 7.62985 14.7784 8.54245C13.9431 9.45501 12.2641 11.2612 11.0472 12.5562C8.65848 15.0982 8.52933 15.2184 7.84693 15.5342C7.22292 15.8229 6.78322 15.9022 5.30314 15.9929C4.80461 16.0235 4.37849 16.0606 4.35625 16.0754C4.32948 16.0932 4.31583 16.3807 4.31583 16.9265C4.31583 17.3799 4.30315 17.7496 4.2877 17.7482C4.27225 17.7467 3.45095 16.9891 2.46262 16.0646ZM19.4661 16.2301C19.4661 15.721 19.4577 15.2954 19.4475 15.2844C19.4373 15.2734 19.2896 15.2908 19.1194 15.3231C18.6443 15.4131 17.5124 15.4086 17.066 15.3149C15.8197 15.0532 14.8223 14.4284 13.766 13.2474C13.394 12.8315 12.716 11.9557 12.716 11.8911C12.716 11.835 14.9008 9.68063 14.9267 9.71128C14.943 9.73051 15.1075 9.93718 15.2924 10.1705C16.3828 11.5469 17.1427 12.0749 18.1161 12.1327C18.4909 12.155 19.0273 12.0655 19.3255 11.9309L19.4661 11.8675V11.0992C19.4661 10.6767 19.4746 10.331 19.485 10.331C19.5193 10.331 23.1412 13.7196 23.1388 13.7495C23.1366 13.7772 19.6921 16.9833 19.5386 17.1005C19.4676 17.1547 19.4661 17.1372 19.4661 16.2301ZM8.48395 7.60561C8.29105 7.37322 7.99055 6.99767 7.81621 6.77104C7.44087 6.28307 7.27429 6.11661 6.92212 5.87728C6.31694 5.46604 5.51469 5.33176 4.53018 5.47685L4.35472 5.50274L4.34463 6.39799L4.33458 7.29325L2.49705 5.58218C1.4864 4.64111 0.654639 3.85723 0.648714 3.84017C0.642751 3.82315 1.46964 3.03528 2.48625 2.08933L4.33458 0.369419L4.34463 1.32017C4.35397 2.20018 4.35952 2.26938 4.41963 2.24994C4.60983 2.18857 5.36217 2.13744 5.76174 2.15873C7.09328 2.22974 8.20817 2.72707 9.37125 3.76891C9.70564 4.06841 10.371 4.8062 10.7511 5.29881L11.0532 5.69037L9.96181 6.86141C9.36158 7.50549 8.86244 8.03149 8.85258 8.03028C8.84272 8.02907 8.67682 7.83797 8.48395 7.60561Z" fill="white"/>
</svg>
