<svg width="24" height="18" viewBox="0 0 24 18" fill="none" xmlns="http://www.w3.org/2000/svg">
<path fill-rule="evenodd" clip-rule="evenodd" d="M2.46262 15.819C1.47429 14.8945 0.661051 14.1199 0.655426 14.0977C0.646764 14.0634 4.23715 10.6948 4.32306 10.6567C4.33971 10.6493 4.35333 11.0445 4.35333 11.535C4.35333 12.3464 4.35925 12.4294 4.41895 12.4557C4.45507 12.4717 4.77146 12.4847 5.12209 12.4847C5.62569 12.4847 5.81345 12.469 6.01596 12.4099C6.73038 12.2015 7.17019 11.8995 7.83781 11.1588C8.10009 10.8679 8.78887 10.1035 9.3684 9.46035C9.94794 8.81716 11.3896 7.25488 12.5722 5.98863C14.8617 3.53698 15.0025 3.40447 15.6904 3.05344C16.375 2.7041 16.6827 2.64228 18.1348 2.56248C18.7742 2.52736 19.335 2.49054 19.381 2.4807C19.4639 2.46296 19.4647 2.45578 19.4747 1.61314L19.4848 0.763493L21.3143 2.4663C22.3206 3.40286 23.139 4.18214 23.1331 4.19803C23.1272 4.21388 22.2913 5.00046 21.2755 5.94596L19.4286 7.66503V6.80316V5.94129L19.1942 5.91738C19.0653 5.90423 18.6814 5.88177 18.3411 5.86745C17.8338 5.84608 17.6784 5.85326 17.4786 5.90721C17.1434 5.99774 16.7498 6.21473 16.5035 6.44483C16.3899 6.55084 15.6137 7.38424 14.7784 8.29684C13.9431 9.2094 12.2641 11.0156 11.0472 12.3106C8.65848 14.8526 8.52933 14.9728 7.84693 15.2885C7.22292 15.5773 6.78322 15.6566 5.30314 15.7473C4.80461 15.7779 4.37849 15.815 4.35625 15.8298C4.32948 15.8476 4.31583 16.1351 4.31583 16.6809C4.31583 17.1343 4.30315 17.504 4.2877 17.5026C4.27225 17.5011 3.45095 16.7435 2.46262 15.819ZM19.4661 15.9845C19.4661 15.4754 19.4577 15.0498 19.4475 15.0388C19.4373 15.0278 19.2896 15.0452 19.1194 15.0775C18.6443 15.1675 17.5124 15.163 17.066 15.0693C15.8197 14.8076 14.8223 14.1827 13.766 13.0018C13.394 12.5859 12.716 11.7101 12.716 11.6455C12.716 11.5894 14.9008 9.43502 14.9267 9.46567C14.943 9.4849 15.1075 9.69157 15.2924 9.92485C16.3828 11.3013 17.1427 11.8293 18.1161 11.8871C18.4909 11.9094 19.0273 11.8199 19.3255 11.6853L19.4661 11.6219V10.8536C19.4661 10.4311 19.4746 10.0854 19.485 10.0854C19.5193 10.0854 23.1412 13.474 23.1388 13.5039C23.1366 13.5316 19.6921 16.7377 19.5386 16.8549C19.4676 16.9091 19.4661 16.8916 19.4661 15.9845ZM8.48395 7.36001C8.29105 7.12761 7.99055 6.75207 7.81621 6.52544C7.44087 6.03746 7.27429 5.871 6.92212 5.63167C6.31694 5.22043 5.51469 5.08615 4.53018 5.23124L4.35472 5.25713L4.34463 6.15239L4.33458 7.04765L2.49705 5.33657C1.4864 4.3955 0.654639 3.61162 0.648714 3.59456C0.642751 3.57755 1.46964 2.78967 2.48625 1.84372L4.33458 0.123814L4.34463 1.07456C4.35397 1.95458 4.35952 2.02378 4.41963 2.00434C4.60983 1.94296 5.36217 1.89183 5.76174 1.91312C7.09328 1.98414 8.20817 2.48147 9.37125 3.52331C9.70564 3.8228 10.371 4.56059 10.7511 5.05321L11.0532 5.44476L9.96181 6.61581C9.36158 7.25988 8.86244 7.78588 8.85258 7.78467C8.84272 7.78346 8.67682 7.59236 8.48395 7.36001Z" fill="white"/>
</svg>
