<svg width="81" height="81" viewBox="0 0 81 81" fill="none" xmlns="http://www.w3.org/2000/svg">
<path fill-rule="evenodd" clip-rule="evenodd" d="M38.7061 0.456996C35.1403 1.41662 32.8591 4.35584 32.8591 7.99054C32.8591 11.2052 34.8059 14.1364 37.613 15.1481L38.2023 15.3605V17.8824V20.4042H40.5596H42.9169V17.8632V15.3223L43.3633 15.2243C43.8713 15.1127 45.2926 14.2189 45.9543 13.5949C46.1985 13.3646 46.6753 12.7623 47.0135 12.2568C49.1209 9.10746 48.5151 4.59704 45.6531 2.12844C43.7621 0.497379 41.0133 -0.164004 38.7061 0.456996ZM15.0838 10.1706C14.5129 10.3722 13.7349 10.7509 13.3551 11.0124C12.5498 11.5666 11.3841 12.783 10.9051 13.5688C9.57586 15.7496 9.57555 19.2397 10.9041 21.4256C11.4059 22.251 12.6874 23.5573 13.5083 24.0803C15.3441 25.2495 18.0847 25.5562 20.1296 24.8215L21.1511 24.4544L22.8997 26.1788L24.6484 27.9031L26.3353 26.2164L28.0222 24.5297L26.2886 22.7812L24.555 21.0328L24.8783 20.2471C25.1076 19.6901 25.2231 18.9814 25.2754 17.8115C25.3384 16.4034 25.299 16.0118 25.0059 15.1402C24.2093 12.7703 22.4688 10.9904 20.1464 10.1706C19.338 9.88544 18.7774 9.8042 17.6151 9.8042C16.4528 9.8042 15.8922 9.88544 15.0838 10.1706ZM60.9729 10.1706C60.4019 10.3722 59.624 10.7509 59.2442 11.0124C58.4389 11.5666 57.2731 12.783 56.7941 13.5688C55.7454 15.2893 55.4803 18.0673 56.179 20.0114L56.5461 21.0328L54.8179 22.7848L53.0897 24.5371L54.7766 26.2237L56.4635 27.9104L58.2159 26.1824L59.9682 24.4544L60.9897 24.8215C63.0346 25.5562 65.7752 25.2495 67.6109 24.0803C68.4319 23.5573 69.7133 22.251 70.2151 21.4256C71.6314 19.0956 71.5305 15.4678 69.9872 13.2378C68.3828 10.9192 66.2775 9.8042 63.5042 9.8042C62.3418 9.8042 61.7813 9.88544 60.9729 10.1706ZM37.4165 25.3439C31.4271 26.6086 26.6958 31.361 25.4587 37.3549C23.4982 46.8533 30.8373 55.8342 40.5596 55.8342C44.8166 55.8342 48.6919 54.1802 51.6432 51.1036C54.4862 48.14 55.9567 44.5044 55.9567 40.439C55.9567 35.2395 53.3477 30.4135 48.982 27.5371C45.6594 25.348 41.3063 24.5226 37.4165 25.3439ZM5.66775 33.097C4.32816 33.5536 3.15406 34.3194 2.30465 35.2901C-2.11375 40.3405 1.40792 48.1386 8.10725 48.1386C11.3223 48.1386 14.2539 46.192 15.2656 43.3853L15.4781 42.796H18.0003H20.5224V40.439V38.082H17.9811H15.4399L15.3419 37.6357C15.2317 37.1338 14.3474 35.7229 13.7123 35.0357C13.0421 34.3104 11.5134 33.389 10.4201 33.0513C9.00429 32.6141 7.02839 32.6331 5.66775 33.097ZM70.5725 33.097C69.3933 33.499 68.2026 34.2213 67.485 34.9697C66.8008 35.6836 65.8959 37.0963 65.7774 37.6357L65.6793 38.082H63.1381H60.5968V40.439V42.796H63.1381H65.6793L65.7774 43.2423C65.8876 43.7442 66.7719 45.1551 67.4069 45.8423C67.6373 46.0916 68.2452 46.57 68.7575 46.9053C72.5864 49.4103 77.9364 47.9967 79.9145 43.9573C81.3443 41.0377 80.9454 37.7754 78.8605 35.3365C76.9298 33.0782 73.4141 32.1281 70.5725 33.097ZM22.9005 54.7176L21.1977 56.4253L20.153 56.0565C18.0734 55.3226 15.3469 55.6268 13.5083 56.7977C12.6874 57.3207 11.4059 58.627 10.9041 59.4524C9.57586 61.6377 9.57586 65.1239 10.9041 67.3092C11.4059 68.1346 12.6874 69.4409 13.5083 69.9638C15.9375 71.511 19.5481 71.4666 21.8823 69.8607C23.3814 68.8296 24.4334 67.441 25.0059 65.7378C25.299 64.8662 25.3384 64.4746 25.2754 63.0665C25.2231 61.8966 25.1076 61.1879 24.8783 60.6309L24.555 59.8452L26.2924 58.0932L28.0295 56.3409L26.3637 54.6755C25.4477 53.7594 24.6767 53.0098 24.6506 53.0098C24.6245 53.0098 23.8368 53.7784 22.9005 54.7176ZM54.7217 54.6866L53.09 56.3413L54.8181 58.0932L56.5461 59.8452L56.179 60.8666C55.4805 62.8099 55.7451 65.5847 56.7932 67.3092C57.295 68.1346 58.5764 69.4409 59.3974 69.9638C61.8254 71.5103 65.4371 71.4666 67.769 69.8624C69.2276 68.859 70.2623 67.5244 70.8316 65.9118C71.527 63.9417 71.2632 61.1766 70.2151 59.4524C69.7133 58.627 68.4319 57.3207 67.6109 56.7977C65.7724 55.6268 63.0459 55.3226 60.9663 56.0565L59.9215 56.4253L58.2187 54.7176C57.2824 53.7784 56.4795 53.0149 56.4349 53.021C56.3902 53.027 55.6192 53.7767 54.7217 54.6866ZM38.2023 63.0148V65.5557L37.756 65.6537C37.254 65.7639 35.8429 66.6481 35.1557 67.2831C34.9063 67.5134 34.4279 68.1212 34.0926 68.6335C31.5872 72.4619 33.001 77.8113 37.0409 79.7892C39.3667 80.9279 41.7845 80.9315 44.0956 79.8C48.1525 77.8135 49.5367 72.3716 46.96 68.5386C46.1779 67.375 44.7131 66.1459 43.6634 65.7725L42.9169 65.507V62.9903V60.4738H40.5596H38.2023V63.0148Z" fill="white"/>
</svg>
