<svg width="298" height="343" viewBox="0 0 298 343" fill="none" xmlns="http://www.w3.org/2000/svg">
<mask id="mask0_12_95" style="mask-type:alpha" maskUnits="userSpaceOnUse" x="0" y="0" width="297" height="343">
<path d="M147.922 0.862231C152.309 2.64122 231.996 48.6441 234.173 50.6325C233.824 50.9987 233.535 51.4603 233.119 51.7089C230.892 53.0411 228.632 54.3193 226.195 55.7281C213.197 48.244 200.233 40.763 187.254 33.3076C174.382 25.9124 161.502 18.5395 148.312 10.9761C136.622 17.7269 124.929 24.4777 112.708 31.5344C142.927 48.9942 172.829 66.1141 202.822 83.3738C217.725 74.7553 232.466 66.2292 247.365 57.6107C263.749 67.0499 279.975 76.3971 295.983 85.6205C296.623 88.7526 297.146 175.987 296.621 183.71C296.58 184.308 296.33 184.894 296.077 185.864C292.987 184.503 290.394 182.894 287.539 180.928C287.349 173.515 287.464 165.973 287.432 158.438C287.401 151.005 287.408 143.572 287.399 136.139C287.39 128.576 287.381 121.012 287.371 113.449C287.362 106.028 287.353 98.6079 287.344 90.9172C275.669 84.1948 264.09 77.5328 252.154 70.6613C252.196 105.594 252.238 140.094 252.281 174.852C266.873 183.275 281.517 191.731 295.976 200.078C296.785 203.277 297.088 251.527 296.335 257.084C267.928 273.505 239.238 290.089 210.169 306.892C210.022 305.709 209.887 305.092 209.88 304.475C209.852 302.011 209.865 299.549 209.861 296.813C235.746 281.839 261.538 266.919 287.355 251.984C287.339 238.247 287.322 224.735 287.305 210.833C257.262 228.201 227.526 245.39 197.683 262.64C197.703 279.751 197.724 296.679 197.744 313.367C195.543 315.469 154.026 339.826 148.455 342.339C119.96 325.933 91.3057 309.432 62.3271 292.747C64.9951 290.291 67.9062 289.006 70.8965 287.422C96.7344 302.288 122.576 317.158 148.674 332.174C160.279 325.467 171.864 318.771 183.84 311.851C182.901 311.089 182.316 310.466 181.606 310.057C157.795 296.314 133.974 282.593 110.154 268.869C106.09 266.527 102.024 264.187 97.9571 261.855C96.8339 261.21 95.698 260.598 94.2088 259.773C79.382 268.022 64.8198 276.866 49.6022 285.437C33.3835 276.103 17.0534 266.702 0.510081 257.174C0.470242 224.436 0.427418 191.857 0.410028 159.274C0.409292 158.67 0.682018 158.065 0.916137 157.092C3.94822 158.529 6.54173 160.154 8.9857 161.716C9.77887 165.478 10.1799 233.762 9.54384 251.94C20.8882 258.831 32.7757 265.261 44.3171 272.101C44.5491 272.015 44.6763 272.002 44.7493 271.935C44.8383 271.849 44.924 271.722 44.9334 271.607C44.9836 271.089 45.0402 270.57 45.0396 270.052C45.0017 236.283 44.9606 202.515 44.9191 168.425C30.18 159.909 15.4345 151.39 0.571234 142.805C0.54831 123.966 0.525513 105.232 0.502267 86.1295C29.078 69.6001 57.6918 53.0483 86.6202 36.318C87.5879 39.8092 87.083 42.965 87.0108 46.3619C61.2123 61.2914 35.4202 76.2144 9.5422 91.1884C9.5587 104.754 9.575 118.15 9.5917 131.872C10.4149 131.565 11.251 131.383 11.9596 130.975C34.5265 117.942 57.0776 104.887 79.6318 91.8379C85.4976 88.4465 91.3697 85.0679 97.2323 81.6766C97.8996 81.291 98.5414 80.8608 99.3929 80.3254C99.3721 63.2678 99.3514 46.2133 99.3304 28.9935C115.685 19.5272 131.897 10.1405 147.922 0.862231ZM54.1563 168.334C54.1985 203.041 54.2403 237.407 54.2829 272.394C66.2687 265.516 77.8413 258.845 89.5759 251.973C89.5394 221.945 89.5029 191.99 89.4665 162.07C92.2878 160.088 94.8707 158.291 98.3733 157.03C98.4121 188.919 98.4503 220.299 98.4887 251.883C128.546 269.19 158.432 286.399 188.645 303.795C188.628 289.864 188.611 276.366 188.595 262.644C162.664 247.724 136.725 232.797 110.814 217.886C110.663 214.534 110.183 211.484 111.224 207.949C125.117 215.719 138.545 223.631 152.072 231.366C165.738 239.18 179.373 247.042 193.034 254.891C195.245 253.673 197.193 252.64 199.103 251.541C208.811 245.947 218.505 240.331 228.206 234.724C245.464 224.748 262.721 214.778 279.969 204.786C280.896 204.247 281.719 203.521 282.806 202.725C270.787 195.815 259.176 189.137 247.495 182.424C221.417 197.5 195.513 212.474 169.667 227.417C166.752 225.614 163.819 224.533 161.193 222.064C188.609 206.188 215.732 190.485 242.633 174.908C243.288 166.736 242.905 73.9104 242.205 70.8865C230.68 77.5544 219.193 84.1999 207.471 90.9826C207.473 92.6047 207.475 94.1505 207.477 95.6962C207.509 122.687 207.546 149.678 207.566 176.668C207.567 178.201 207.42 179.735 207.345 181.226C204.451 182.881 202.084 184.91 198.524 185.855C198.468 183.979 198.383 182.462 198.381 180.942C198.34 152.516 198.306 124.091 198.271 95.6661C198.269 94.1267 198.267 92.5873 198.265 91.016C168.208 73.7532 138.469 56.665 108.415 39.3958C108.432 53.4764 108.449 66.9844 108.465 80.5084C121.585 88.0782 134.551 95.5687 147.524 103.046C160.475 110.511 173.521 117.808 186.323 125.419C186.231 128.813 187.024 131.866 185.664 135.21C158.193 119.417 131.019 103.795 103.826 88.1603C73.9057 105.461 44.1734 122.657 13.8532 140.19C26.1358 147.265 37.8265 153.997 49.4854 160.713C75.535 145.649 101.343 130.726 127.154 115.803C130.177 117.342 133.117 118.569 135.759 121.092C108.286 136.996 81.1432 152.71 54.1563 168.334Z" fill="url(#paint0_linear_12_95)" fill-opacity="0.25"/>
</mask>
<g mask="url(#mask0_12_95)">
<rect x="-77.6223" y="-41.7485" width="292.636" height="265.83" fill="#D9D9D9"/>
</g>
<defs>
<linearGradient id="paint0_linear_12_95" x1="31.5722" y1="54.9765" x2="265.366" y2="288.141" gradientUnits="userSpaceOnUse">
<stop stop-color="#20419A"/>
<stop offset="0.4944" stop-color="#4366B0"/>
<stop offset="1" stop-color="#4BBBEB"/>
</linearGradient>
</defs>
</svg>
