<svg width="298" height="343" viewBox="0 0 298 343" fill="none" xmlns="http://www.w3.org/2000/svg">
<g style="mix-blend-mode:multiply" opacity="0.65">
<mask id="mask0_12_98" style="mask-type:alpha" maskUnits="userSpaceOnUse" x="0" y="0" width="298" height="343">
<path d="M148.485 0.862231C152.872 2.64122 232.559 48.6441 234.737 50.6325C234.387 50.9987 234.099 51.4603 233.682 51.7089C231.455 53.0411 229.196 54.3193 226.759 55.7281C213.76 48.244 200.796 40.763 187.817 33.3076C174.946 25.9124 162.065 18.5395 148.876 10.9761C137.185 17.7269 125.492 24.4777 113.271 31.5344C143.491 48.9942 173.392 66.1141 203.386 83.3738C218.289 74.7553 233.029 66.2292 247.929 57.6107C264.313 67.0499 280.538 76.3971 296.547 85.6205C297.187 88.7526 297.709 175.987 297.184 183.71C297.144 184.308 296.893 184.894 296.64 185.864C293.551 184.503 290.957 182.894 288.103 180.928C287.912 173.515 288.027 165.973 287.996 158.438C287.965 151.005 287.971 143.572 287.962 136.139C287.953 128.576 287.944 121.012 287.935 113.449C287.926 106.028 287.917 98.6079 287.907 90.9172C276.233 84.1948 264.653 77.5328 252.717 70.6613C252.76 105.594 252.802 140.094 252.844 174.852C267.437 183.275 282.081 191.731 296.54 200.078C297.348 203.277 297.652 251.527 296.898 257.084C268.491 273.505 239.801 290.089 210.733 306.892C210.585 305.709 210.451 305.092 210.444 304.475C210.415 302.011 210.428 299.549 210.425 296.813C236.309 281.839 262.101 266.919 287.919 251.984C287.902 238.247 287.886 224.735 287.869 210.833C257.825 228.201 228.09 245.39 198.246 262.64C198.267 279.751 198.287 296.679 198.308 313.367C196.107 315.469 154.589 339.826 149.018 342.339C120.523 325.933 91.8692 309.432 62.8905 292.747C65.5586 290.291 68.4697 289.006 71.46 287.422C97.2979 302.288 123.139 317.158 149.238 332.174C160.842 325.467 172.428 318.771 184.404 311.851C183.465 311.089 182.879 310.466 182.169 310.057C158.358 296.314 134.538 282.593 110.717 268.869C106.654 266.527 102.587 264.187 98.5206 261.855C97.3974 261.21 96.2614 260.598 94.7723 259.773C79.9455 268.022 65.3833 276.866 50.1657 285.437C33.947 276.103 17.6169 266.702 1.07356 257.174C1.03372 224.436 0.990894 191.857 0.973504 159.274C0.972769 158.67 1.24549 158.065 1.47961 157.092C4.5117 158.529 7.1052 160.154 9.54918 161.716C10.3423 165.478 10.7434 233.762 10.1073 251.94C21.4516 258.831 33.3392 265.261 44.8806 272.101C45.1126 272.015 45.2398 272.002 45.3128 271.935C45.4017 271.849 45.4874 271.722 45.4968 271.607C45.5471 271.089 45.6037 270.57 45.6031 270.052C45.5651 236.283 45.524 202.515 45.4826 168.425C30.7434 159.909 15.9979 151.39 1.13471 142.805C1.11179 123.966 1.08899 105.232 1.06574 86.1295C29.6414 69.6001 58.2553 53.0483 87.1837 36.318C88.1514 39.8092 87.6465 42.965 87.5743 46.3619C61.7758 61.2914 35.9836 76.2144 10.1057 91.1884C10.1222 104.754 10.1385 118.15 10.1552 131.872C10.9784 131.565 11.8144 131.383 12.523 130.975C35.09 117.942 57.6411 104.887 80.1953 91.8379C86.0611 88.4465 91.9332 85.0679 97.7958 81.6766C98.4631 81.291 99.1049 80.8608 99.9564 80.3254C99.9356 63.2678 99.9149 46.2133 99.8939 28.9935C116.249 19.5272 132.461 10.1405 148.485 0.862231ZM54.7197 168.334C54.762 203.041 54.8038 237.407 54.8464 272.394C66.8321 265.516 78.4048 258.845 90.1394 251.973C90.1029 221.945 90.0664 191.99 90.03 162.07C92.8512 160.088 95.4342 158.291 98.9368 157.03C98.9756 188.919 99.0138 220.299 99.0522 251.883C129.11 269.19 158.995 286.399 189.208 303.795C189.191 289.864 189.175 276.366 189.158 262.644C163.228 247.724 137.288 232.797 111.377 217.886C111.227 214.534 110.746 211.484 111.788 207.949C125.68 215.719 139.109 223.631 152.635 231.366C166.302 239.18 179.937 247.042 193.597 254.891C195.809 253.673 197.757 252.64 199.667 251.541C209.374 245.947 219.069 240.331 228.77 234.724C246.027 224.748 263.284 214.778 280.532 204.786C281.46 204.247 282.283 203.521 283.369 202.725C271.351 195.815 259.74 189.137 248.058 182.424C221.98 197.5 196.077 212.474 170.231 227.417C167.316 225.614 164.383 224.533 161.756 222.064C189.172 206.188 216.296 190.485 243.197 174.908C243.851 166.736 243.468 73.9104 242.768 70.8865C231.243 77.5544 219.756 84.1999 208.034 90.9826C208.036 92.6047 208.038 94.1505 208.04 95.6962C208.073 122.687 208.109 149.678 208.129 176.668C208.131 178.201 207.983 179.735 207.909 181.226C205.014 182.881 202.648 184.91 199.087 185.855C199.031 183.979 198.947 182.462 198.945 180.942C198.904 152.516 198.869 124.091 198.835 95.6661C198.833 94.1267 198.831 92.5873 198.829 91.016C168.772 73.7532 139.033 56.665 108.979 39.3958C108.996 53.4764 109.012 66.9844 109.029 80.5084C122.148 88.0782 135.115 95.5687 148.088 103.046C161.039 110.511 174.085 117.808 186.886 125.419C186.795 128.813 187.587 131.866 186.227 135.21C158.757 119.417 131.582 103.795 104.389 88.1603C74.4692 105.461 44.7369 122.657 14.4167 140.19C26.6993 147.265 38.39 153.997 50.0489 160.713C76.0984 145.649 101.907 130.726 127.718 115.803C130.74 117.342 133.68 118.569 136.322 121.092C108.849 136.996 81.7066 152.71 54.7197 168.334Z" fill="url(#paint0_linear_12_98)" fill-opacity="0.5"/>
</mask>
<g mask="url(#mask0_12_98)">
<path d="M-61.228 -41.7485H231.408V224.081H-61.228V-41.7485Z" fill="#D9D9D9"/>
</g>
</g>
<defs>
<linearGradient id="paint0_linear_12_98" x1="32.1357" y1="54.9765" x2="265.929" y2="288.141" gradientUnits="userSpaceOnUse">
<stop stop-color="#20419A"/>
<stop offset="0.4944" stop-color="#4366B0"/>
<stop offset="1" stop-color="#4BBBEB"/>
</linearGradient>
</defs>
</svg>
