<svg width="298" height="343" viewBox="0 0 298 343" fill="none" xmlns="http://www.w3.org/2000/svg">
<g style="mix-blend-mode:multiply">
<mask id="mask0_12_101" style="mask-type:alpha" maskUnits="userSpaceOnUse" x="0" y="0" width="298" height="343">
<path d="M148.492 0.862231C152.879 2.64122 232.566 48.6441 234.744 50.6325C234.394 50.9987 234.106 51.4603 233.689 51.7089C231.462 53.0411 229.203 54.3193 226.765 55.7281C213.767 48.244 200.803 40.763 187.824 33.3076C174.953 25.9124 162.072 18.5395 148.883 10.9761C137.192 17.7269 125.499 24.4777 113.278 31.5344C143.498 48.9942 173.399 66.1141 203.393 83.3738C218.295 74.7553 233.036 66.2292 247.936 57.6107C264.32 67.0499 280.545 76.3971 296.554 85.6205C297.193 88.7526 297.716 175.987 297.191 183.71C297.151 184.308 296.9 184.894 296.647 185.864C293.558 184.503 290.964 182.894 288.11 180.928C287.919 173.515 288.034 165.973 288.003 158.438C287.971 151.005 287.978 143.572 287.969 136.139C287.96 128.576 287.951 121.012 287.942 113.449C287.933 106.028 287.924 98.6079 287.914 90.9172C276.239 84.1948 264.66 77.5328 252.724 70.6613C252.767 105.594 252.809 140.094 252.851 174.852C267.444 183.275 282.087 191.731 296.547 200.078C297.355 203.277 297.659 251.527 296.905 257.084C268.498 273.505 239.808 290.089 210.74 306.892C210.592 305.709 210.458 305.092 210.451 304.475C210.422 302.011 210.435 299.549 210.432 296.813C236.316 281.839 262.108 266.919 287.926 251.984C287.909 238.247 287.893 224.735 287.876 210.833C257.832 228.201 228.096 245.39 198.253 262.64C198.274 279.751 198.294 296.679 198.315 313.367C196.114 315.469 154.596 339.826 149.025 342.339C120.53 325.933 91.876 309.432 62.8974 292.747C65.5654 290.291 68.4765 289.006 71.4668 287.422C97.3047 302.288 123.146 317.158 149.245 332.174C160.849 325.467 172.435 318.771 184.411 311.851C183.472 311.089 182.886 310.466 182.176 310.057C158.365 296.314 134.545 282.593 110.724 268.869C106.661 266.527 102.594 264.187 98.5275 261.855C97.4042 261.21 96.2683 260.598 94.7791 259.773C79.9523 268.022 65.3901 276.866 50.1725 285.437C33.9538 276.103 17.6237 266.702 1.08039 257.174C1.04055 224.436 0.99773 191.857 0.98034 159.274C0.979605 158.67 1.25233 158.065 1.48645 157.092C4.51853 158.529 7.11204 160.154 9.55602 161.716C10.3492 165.478 10.7503 233.762 10.1142 251.94C21.4585 258.831 33.346 265.261 44.8874 272.101C45.1194 272.015 45.2466 272.002 45.3196 271.935C45.4086 271.849 45.4943 271.722 45.5037 271.607C45.5539 271.089 45.6105 270.57 45.6099 270.052C45.572 236.283 45.5309 202.515 45.4894 168.425C30.7503 159.909 16.0048 151.39 1.14155 142.805C1.11862 123.966 1.09583 105.232 1.07258 86.1295C29.6483 69.6001 58.2621 53.0483 87.1905 36.318C88.1582 39.8092 87.6533 42.965 87.5811 46.3619C61.7826 61.2914 35.9905 76.2144 10.1125 91.1884C10.129 104.754 10.1453 118.15 10.162 131.872C10.9852 131.565 11.8213 131.383 12.5299 130.975C35.0968 117.942 57.6479 104.887 80.2021 91.8379C86.0679 88.4465 91.94 85.0679 97.8026 81.6766C98.4699 81.291 99.1117 80.8608 99.9632 80.3254C99.9425 63.2678 99.9217 46.2133 99.9008 28.9935C116.256 19.5272 132.467 10.1405 148.492 0.862231ZM54.7266 168.334C54.7688 203.041 54.8106 237.407 54.8532 272.394C66.839 265.516 78.4116 258.845 90.1462 251.973C90.1097 221.945 90.0732 191.99 90.0368 162.07C92.8581 160.088 95.441 158.291 98.9436 157.03C98.9824 188.919 99.0206 220.299 99.0591 251.883C129.116 269.19 159.002 286.399 189.215 303.795C189.198 289.864 189.182 276.366 189.165 262.644C163.235 247.724 137.295 232.797 111.384 217.886C111.234 214.534 110.753 211.484 111.795 207.949C125.687 215.719 139.115 223.631 152.642 231.366C166.309 239.18 179.944 247.042 193.604 254.891C195.816 253.673 197.764 252.64 199.673 251.541C209.381 245.947 219.076 240.331 228.777 234.724C246.034 224.748 263.291 214.778 280.539 204.786C281.467 204.247 282.289 203.521 283.376 202.725C271.358 195.815 259.746 189.137 248.065 182.424C221.987 197.5 196.084 212.474 170.237 227.417C167.323 225.614 164.389 224.533 161.763 222.064C189.179 206.188 216.303 190.485 243.204 174.908C243.858 166.736 243.475 73.9104 242.775 70.8865C231.25 77.5544 219.763 84.1999 208.041 90.9826C208.043 92.6047 208.045 94.1505 208.047 95.6962C208.08 122.687 208.116 149.678 208.136 176.668C208.138 178.201 207.99 179.735 207.916 181.226C205.021 182.881 202.654 184.91 199.094 185.855C199.038 183.979 198.953 182.462 198.952 180.942C198.911 152.516 198.876 124.091 198.841 95.6661C198.84 94.1267 198.838 92.5873 198.836 91.016C168.779 73.7532 139.039 56.665 108.985 39.3958C109.002 53.4764 109.019 66.9844 109.035 80.5084C122.155 88.0782 135.122 95.5687 148.095 103.046C161.045 110.511 174.091 117.808 186.893 125.419C186.802 128.813 187.594 131.866 186.234 135.21C158.764 119.417 131.589 103.795 104.396 88.1603C74.476 105.461 44.7437 122.657 14.4235 140.19C26.7061 147.265 38.3968 153.997 50.0557 160.713C76.1053 145.649 101.913 130.726 127.725 115.803C130.747 117.342 133.687 118.569 136.329 121.092C108.856 136.996 81.7135 152.71 54.7266 168.334Z" fill="url(#paint0_linear_12_101)" fill-opacity="0.25"/>
</mask>
<g mask="url(#mask0_12_101)">
<rect x="-77.052" y="-41.7485" width="292.636" height="265.83" fill="#D9D9D9"/>
</g>
</g>
<defs>
<linearGradient id="paint0_linear_12_101" x1="32.1425" y1="54.9765" x2="265.936" y2="288.141" gradientUnits="userSpaceOnUse">
<stop stop-color="#20419A"/>
<stop offset="0.4944" stop-color="#4366B0"/>
<stop offset="1" stop-color="#4BBBEB"/>
</linearGradient>
</defs>
</svg>
