<svg width="363" height="494" viewBox="0 0 363 494" fill="none" xmlns="http://www.w3.org/2000/svg">
<path d="M437.163 133.118C437.796 139.918 431.747 272.528 430.645 276.637C429.944 276.432 429.161 276.369 428.566 276.001C425.381 274.031 422.245 271.985 418.823 269.798C419.784 248.18 420.764 226.609 421.702 205.034C422.633 183.639 423.53 162.245 424.467 140.33C408.061 129.835 391.653 119.335 374.503 108.363C372.191 158.661 370.103 208.327 367.897 258.203C388.827 271.575 409.532 284.8 430.46 298.167C429.241 325.419 428.034 352.407 426.842 379.036C423.255 381.934 311.852 440.493 301.611 444.946C300.818 445.291 299.901 445.359 298.49 445.678C298.183 440.818 298.524 436.428 299.147 431.467C308.518 426.303 318.255 421.445 327.886 416.405C337.388 411.432 346.914 406.508 356.43 401.564C366.113 396.533 375.796 391.502 385.479 386.471C394.979 381.535 404.478 376.599 414.324 371.483C415.188 352.066 416.038 332.812 416.92 312.962C372.198 336.198 328.031 359.147 283.533 382.267C282.426 406.551 281.313 430.921 280.215 454.983C276.654 458.141 215.046 490.549 207.427 493.272C167.54 467.779 127.256 442.032 86.4402 415.946C87.8576 414.971 88.5588 414.39 89.3445 413.971C92.4833 412.299 95.6455 410.682 99.1473 408.863C135.507 432.084 171.735 455.223 208.002 478.385C225.588 469.247 242.885 460.26 260.684 451.012C218.497 424.051 176.745 397.366 134.842 370.583C112.936 381.965 91.2653 393.225 69.9001 404.326C65.7469 402.901 6.99354 365.88 0.0770966 360.411C2.18376 313.021 4.30683 265.364 6.45029 217.169C11.3664 218.957 14.9448 221.833 18.9589 224.613C17.061 267.577 15.1611 310.548 13.2452 353.946C29.5368 364.362 45.8036 374.759 62.6155 385.509C62.9688 383.8 63.3777 382.636 63.4313 381.455C65.2351 341.833 67.0041 302.213 68.7771 262.59C69.0811 255.831 69.379 249.069 69.6687 242.311C69.7486 240.445 69.7794 238.583 69.8482 236.128C49.4411 222.609 28.448 209.823 7.36946 196.017C8.56411 169.046 9.77025 141.888 10.9975 114.373C52.9093 92.5963 94.6154 70.9215 136.342 49.2771C137.116 48.8751 138.072 48.8232 139.474 48.477C139.645 53.3149 139.284 57.7158 138.905 61.8831C134.613 65.3955 47.4054 111.224 23.6968 122.472C22.3972 141.578 22.0496 161.073 20.9462 180.397C21.2106 180.637 21.3115 180.791 21.4456 180.84C21.6148 180.897 21.8348 180.923 21.9877 180.859C22.6853 180.579 23.387 180.307 24.0508 179.962C67.284 157.505 110.515 135.042 154.157 112.367C155.285 87.8344 156.413 63.2918 157.547 38.5542C181.665 26.023 205.648 13.5618 230.104 0.855044C270.242 26.492 310.434 52.1629 351.063 78.1184C347.233 81.6749 342.855 83.1223 338.456 85.2841C302.21 62.143 265.978 39.0058 229.622 15.7926C212.256 24.8159 195.105 33.7271 177.539 42.8541C178.478 43.7054 179.266 44.6554 180.259 45.2924C211.93 65.5523 243.62 85.777 275.303 106.01C283.54 111.274 291.765 116.554 300 121.814C300.937 122.412 301.914 122.949 303.165 123.685C325.002 112.338 346.836 100.994 368.881 89.5398C391.861 104.209 414.644 118.747 437.163 133.118ZM160.404 124.14C115.971 147.226 71.9747 170.085 27.1841 193.358C43.9494 204.147 60.1751 214.545 76.7652 225.017C115.208 205.043 153.557 185.118 191.861 165.216C196.272 167.515 200.288 169.631 204.227 173.281C163.402 194.493 123.229 215.366 82.7957 236.375C80.5711 286.364 78.3586 336.069 76.1237 386.317C93.9585 377.05 111.24 368.071 128.806 358.944C130.711 315.826 132.619 272.69 134.525 229.602C138.72 227.185 142.307 224.546 147.527 223.534C146.794 246.487 145.568 268.94 144.637 291.401C143.696 314.094 142.673 336.778 141.684 359.486C144.711 361.511 147.327 363.321 150.003 365.037C163.611 373.761 177.239 382.453 190.859 391.16C215.091 406.646 239.315 422.137 263.561 437.601C264.867 438.432 266.343 439.004 268.084 439.867C268.96 419.886 269.809 400.58 270.657 381.161C234.038 357.759 197.666 334.514 161.372 311.32C161.748 306.389 161.186 301.915 162.605 296.912C201.136 321.497 239.253 345.822 277.059 369.946C287.962 365.361 406.619 303.27 410.029 300.366C393.839 290.027 377.703 279.723 361.235 269.207C359.158 270.286 357.18 271.315 355.201 272.343C320.647 290.296 286.095 308.254 251.532 326.191C249.57 327.211 247.508 328.04 245.547 328.934C241.507 326.324 237.338 324.639 233.763 320.705C236.13 319.388 238.017 318.273 239.963 317.262C276.35 298.346 312.74 279.438 349.13 260.53C351.101 259.506 353.072 258.482 355.083 257.437C357.251 207.477 359.406 158.041 361.584 108.081C343.558 117.447 326.264 126.432 308.951 135.428C307.96 157.258 306.969 178.839 305.999 200.42C305.031 221.964 304.342 243.519 303.086 264.969C298.678 267.104 295.294 270.145 290.107 270.622C292.109 224.951 294.087 179.773 296.07 134.562C254.052 107.715 212.293 81.0389 169.711 53.8335C168.799 74.2626 167.934 93.7061 167.067 113.098C203.651 136.472 239.894 159.63 276.14 182.791C276.174 187.685 276.553 192.265 275.075 197.323C236.469 172.684 198.328 148.342 160.404 124.14Z" fill="url(#paint0_linear_12_324)"/>
<defs>
<linearGradient id="paint0_linear_12_324" x1="290.63" y1="19.9826" x2="147.091" y2="474.21" gradientUnits="userSpaceOnUse">
<stop stop-color="#20419A"/>
<stop offset="0.4944" stop-color="#4366B0"/>
<stop offset="1" stop-color="#4BBBEB"/>
</linearGradient>
</defs>
</svg>
