<svg width="45" height="45" viewBox="0 0 45 45" fill="none" xmlns="http://www.w3.org/2000/svg">
<path d="M44.2947 24.3541V20.3579H38.1605C37.8002 17.517 36.6821 14.8254 34.9236 12.5653L39.2995 8.22948L36.4422 5.37221L32.1063 9.74803C29.8462 7.98954 27.1546 6.8715 24.3138 6.51112V0.376984H20.3176V6.51112C17.4803 6.87078 14.7829 7.98971 12.525 9.74803L8.18917 5.37221L5.3319 8.22948L9.70772 12.5653C7.94923 14.8254 6.83118 17.517 6.47081 20.3579H0.33667V24.3541H6.47081C6.83047 27.1914 7.9494 29.8888 9.70772 32.1466L5.3319 36.4825L8.18917 39.3398L12.525 34.9639C14.7829 36.7223 17.4803 37.8412 20.3176 38.2009V44.335H24.3138V38.2009C27.1511 37.8412 29.8485 36.7223 32.1063 34.9639L36.4422 39.3398L39.2995 36.4825L34.9236 32.1466C36.6821 29.8865 37.8002 27.1949 38.1605 24.3541H44.2947ZM22.3157 14.3636C20.196 14.3636 18.1631 15.2057 16.6642 16.7045C15.1654 18.2034 14.3233 20.2363 14.3233 22.356H10.3271C10.3271 19.1764 11.5902 16.1271 13.8385 13.8788C16.0868 11.6305 19.1361 10.3674 22.3157 10.3674V14.3636Z" fill="url(#paint0_linear_12_192)"/>
<defs>
<linearGradient id="paint0_linear_12_192" x1="22.3157" y1="0.376984" x2="22.3157" y2="44.335" gradientUnits="userSpaceOnUse">
<stop stop-color="#22449C"/>
<stop offset="1" stop-color="#4BB6E7"/>
</linearGradient>
</defs>
</svg>
