<svg width="316" height="651" viewBox="0 0 316 651" fill="none" xmlns="http://www.w3.org/2000/svg">
<path d="M577.064 175.388C577.898 184.356 569.921 359.228 568.468 364.646C567.543 364.377 566.511 364.293 565.727 363.807C561.527 361.21 557.391 358.512 552.878 355.628C554.146 327.12 555.439 298.675 556.675 270.224C557.903 242.01 559.086 213.799 560.321 184.899C538.686 171.059 517.049 157.213 494.434 142.744C491.385 209.073 488.632 274.566 485.723 340.338C513.324 357.97 540.626 375.41 568.224 393.038C566.616 428.975 565.025 464.564 563.454 499.679C558.722 503.5 411.817 580.723 398.311 586.595C397.265 587.05 396.057 587.139 394.196 587.56C393.792 581.151 394.241 575.361 395.063 568.819C407.42 562.01 420.26 555.604 432.961 548.957C445.49 542.4 458.053 535.907 470.601 529.387C483.37 522.752 496.139 516.118 508.908 509.483C521.435 502.974 533.962 496.466 546.946 489.719C548.085 464.115 549.206 438.724 550.369 412.548C491.395 443.19 433.151 473.452 374.473 503.94C373.013 535.963 371.544 568.099 370.097 599.83C365.4 603.995 284.159 646.731 274.112 650.322C221.512 616.704 168.391 582.751 114.567 548.352C116.436 547.067 117.361 546.3 118.397 545.748C122.536 543.543 126.706 541.411 131.324 539.011C179.271 569.633 227.046 600.147 274.87 630.69C298.061 618.64 320.871 606.788 344.341 594.594C288.71 559.04 233.651 523.851 178.395 488.532C149.507 503.542 120.93 518.39 92.756 533.029C87.2792 531.15 9.80151 482.33 0.680869 475.118C3.45886 412.626 6.25853 349.781 9.08512 286.226C15.568 288.584 20.2868 292.377 25.5802 296.042C23.0773 352.7 20.572 409.365 18.0455 466.594C39.5292 480.328 60.98 494.039 83.1498 508.215C83.6157 505.961 84.1549 504.427 84.2256 502.87C86.6043 450.62 88.937 398.373 91.2751 346.123C91.676 337.209 92.0688 328.292 92.4508 319.381C92.5562 316.92 92.5968 314.465 92.6876 311.227C65.7768 293.4 38.0934 276.54 10.2972 258.334C11.8726 222.767 13.4631 186.954 15.0815 150.67C70.3504 121.953 125.348 93.3706 180.373 64.8282C181.393 64.2981 182.653 64.2297 184.503 63.7732C184.729 70.1529 184.253 75.9564 183.753 81.4518C178.092 86.0835 63.0924 146.517 31.828 161.35C30.1142 186.545 29.6559 212.252 28.2009 237.735C28.5494 238.052 28.6825 238.255 28.8594 238.32C29.0825 238.395 29.3725 238.428 29.5742 238.344C30.4941 237.975 31.4196 237.617 32.2948 237.162C89.3061 207.547 146.315 177.926 203.866 148.024C205.353 115.674 206.839 83.3093 208.336 50.688C240.14 34.1633 271.766 17.7307 304.016 0.974395C356.946 34.7816 409.946 68.6338 463.524 102.861C458.473 107.551 452.7 109.46 446.899 112.311C399.102 81.7945 351.322 51.2836 303.381 20.6724C280.48 32.5715 257.863 44.3226 234.699 56.3583C235.937 57.4808 236.976 58.7336 238.286 59.5736C280.051 86.2902 321.839 112.96 363.62 139.642C374.482 146.583 385.328 153.546 396.187 160.482C397.423 161.271 398.711 161.979 400.361 162.949C429.158 147.987 457.949 133.027 487.02 117.922C517.323 137.266 547.367 156.438 577.064 175.388ZM212.102 163.549C153.51 193.992 95.4918 224.138 36.4267 254.827C58.535 269.055 79.9317 282.766 101.809 296.576C152.503 270.236 203.073 243.961 253.585 217.716C259.402 220.747 264.698 223.538 269.892 228.352C216.057 256.324 163.081 283.849 109.761 311.553C106.828 377.474 103.91 443.018 100.963 509.281C124.482 497.061 147.27 485.22 170.434 473.185C172.947 416.324 175.463 359.442 177.977 302.622C183.508 299.435 188.239 295.954 195.122 294.62C194.155 324.887 192.539 354.496 191.311 384.115C190.07 414.04 188.722 443.953 187.417 473.898C191.409 476.569 194.859 478.956 198.387 481.219C216.332 492.723 234.303 504.185 252.263 515.667C284.218 536.089 316.162 556.516 348.135 576.908C349.857 578.004 351.804 578.758 354.1 579.897C355.255 553.548 356.375 528.089 357.492 502.482C309.203 471.622 261.24 440.968 213.38 410.382C213.875 403.881 213.134 397.98 215.006 391.383C265.816 423.803 316.081 455.88 365.935 487.692C380.312 481.647 536.786 399.767 541.281 395.938C519.932 382.304 498.653 368.715 476.938 354.849C474.199 356.272 471.59 357.628 468.98 358.984C423.414 382.659 377.851 406.34 332.274 429.993C329.685 431.338 326.966 432.431 324.381 433.61C319.053 430.168 313.555 427.946 308.842 422.759C311.962 421.022 314.451 419.551 317.018 418.218C365 393.274 412.987 368.34 460.975 343.407C463.574 342.056 466.173 340.706 468.825 339.328C471.684 273.446 474.526 208.254 477.398 142.372C453.626 154.723 430.822 166.572 407.991 178.435C406.684 207.221 405.378 235.681 404.099 264.14C402.822 292.55 401.913 320.973 400.257 349.26C394.444 352.076 389.981 356.085 383.141 356.714C385.781 296.489 388.39 236.913 391.004 177.293C335.595 141.89 280.528 106.712 224.376 70.8368C223.173 97.7765 222.032 123.417 220.89 148.989C269.132 179.812 316.926 210.35 364.723 240.893C364.768 247.345 365.268 253.385 363.319 260.056C312.41 227.565 262.113 195.464 212.102 163.549Z" fill="url(#paint0_linear_12_74)"/>
<defs>
<linearGradient id="paint0_linear_12_74" x1="383.832" y1="26.1978" x2="194.547" y2="625.184" gradientUnits="userSpaceOnUse">
<stop stop-color="#20419A"/>
<stop offset="0.4944" stop-color="#4366B0"/>
<stop offset="1" stop-color="#4BBBEB"/>
</linearGradient>
</defs>
</svg>
