<svg width="63" height="64" viewBox="0 0 63 64" fill="none" xmlns="http://www.w3.org/2000/svg">
<path d="M8.97965 9.39933C8.97965 7.0295 9.92106 4.75673 11.5968 3.081C13.2725 1.40528 15.5453 0.463867 17.9151 0.463867C20.2849 0.463867 22.5577 1.40528 24.2334 3.081C25.9092 4.75673 26.8506 7.0295 26.8506 9.39933C26.8506 11.7692 25.9092 14.0419 24.2334 15.7177C22.5577 17.3934 20.2849 18.3348 17.9151 18.3348C15.5453 18.3348 13.2725 17.3934 11.5968 15.7177C9.92106 14.0419 8.97965 11.7692 8.97965 9.39933ZM39.2664 16.4762L39.454 16.6192C41.3497 18.0243 43.7241 18.6226 46.0592 18.2835C48.3944 17.9443 50.5005 16.6953 51.9182 14.809C53.3358 12.9227 53.9497 10.5522 53.626 8.21493C53.3023 5.87763 52.0672 3.76325 50.1903 2.33322C48.3134 0.903189 45.947 0.273616 43.6076 0.581892C41.2682 0.890168 39.1458 2.11126 37.7034 3.9787C36.261 5.84613 35.6158 8.20828 35.9086 10.5497C36.2015 12.891 37.4085 15.0215 39.2664 16.4762ZM23.5802 22.8025C24.1413 21.7399 24.9111 20.8014 25.8433 20.0432C26.7755 19.285 27.8511 18.7225 29.0058 18.3896C30.1604 18.0567 31.3703 17.96 32.5631 18.1055C33.7559 18.2509 34.9072 18.6355 35.9479 19.2361C36.9887 19.8368 37.8976 20.6412 38.6203 21.6012C39.343 22.5613 39.8647 23.6572 40.154 24.8235C40.4434 25.9898 40.4946 27.2025 40.3044 28.389C40.1143 29.5756 39.6868 30.7116 39.0475 31.729C37.8176 33.6865 35.8769 35.0911 33.6332 35.6478C31.3895 36.2044 29.0173 35.8699 27.0151 34.7143C25.0129 33.5588 23.5364 31.6722 22.8959 29.451C22.2554 27.2298 22.5006 24.8467 23.5802 22.8025ZM6.74579 22.8025H18.6746C17.8806 25.0702 17.7079 27.509 18.1746 29.8659C18.6413 32.2227 19.7302 34.4118 21.3285 36.2057H20.149C17.8456 36.2054 15.5984 36.9169 13.7149 38.2429C11.8315 39.5689 10.4039 41.4446 9.62747 43.6132C8.1278 43.0108 6.72366 42.1936 5.45908 41.1872C2.09935 38.4843 0.0441895 34.4901 0.0441895 29.5041C0.0441895 27.7267 0.750249 26.0222 2.00704 24.7654C3.26383 23.5086 4.96841 22.8025 6.74579 22.8025ZM42.4876 36.2057C44.7904 36.2057 47.0369 36.9174 48.9196 38.2434C50.8023 39.5694 52.2291 41.445 53.0047 43.6132C54.5237 42.9922 55.931 42.1835 57.1775 41.1872C60.5373 38.4843 62.5924 34.4901 62.5924 29.5041C62.5924 27.7267 61.8864 26.0222 60.6296 24.7654C59.3728 23.5086 57.6682 22.8025 55.8908 22.8025H43.962C44.4534 24.2009 44.7215 25.7065 44.7215 27.2703C44.7256 30.5679 43.5098 33.7506 41.3081 36.2057H42.4876ZM48.6844 44.8195C49.0105 45.6058 49.1892 46.4726 49.1892 47.375C49.1892 52.361 47.1385 56.3552 43.7743 59.0582C40.4637 61.7165 36.0228 63.0121 31.3183 63.0121C26.6138 63.0121 22.1729 61.7165 18.8623 59.0582C15.5025 56.3552 13.4474 52.361 13.4474 47.375C13.445 46.4943 13.6168 45.6218 13.9527 44.8077C14.2887 43.9935 14.7822 43.2538 15.405 42.631C16.0277 42.0083 16.7675 41.5147 17.5816 41.1788C18.3957 40.8428 19.2682 40.6711 20.149 40.6734H42.4876C43.815 40.6731 45.1126 41.067 46.2158 41.8052C47.319 42.5433 48.1782 43.5924 48.6844 44.8195Z" fill="white"/>
</svg>
