<svg width="41" height="41" viewBox="0 0 41 41" fill="none" xmlns="http://www.w3.org/2000/svg">
<path d="M3.02916 5.43796C3.02916 2.68529 5.2601 0.454346 8.01277 0.454346H20.4718C23.2206 0.454346 25.4554 2.68529 25.4554 5.43796V20.3888H26.0784C29.8628 20.3888 32.9308 23.4568 32.9308 27.2413V29.7331C32.9308 30.7687 33.764 31.6019 34.7997 31.6019C35.8353 31.6019 36.6685 30.7687 36.6685 29.7331V17.6712C34.5194 17.1884 32.9308 15.2339 32.9308 12.9134V7.92976L30.439 5.43796C29.7538 4.7496 29.7538 3.63451 30.439 2.94615C31.1243 2.25779 32.2456 2.25779 32.9308 2.94615L38.9501 8.96542C39.8845 9.89985 40.4062 11.1613 40.4062 12.4851V29.7331C40.4062 32.8322 37.8989 35.3396 34.7997 35.3396C31.7005 35.3396 29.1931 32.8322 29.1931 29.7331V27.2413C29.1931 25.5204 27.7993 24.0564 26.0784 24.0564H25.4554V35.3396C26.8337 35.3396 27.9472 36.4532 27.9472 37.8314C27.9472 39.2097 26.8337 40.3232 25.4554 40.3232H3.02916C1.65322 40.3232 0.537354 39.2097 0.537354 37.8314C0.537354 36.4532 1.65322 35.3396 3.02916 35.3396V5.43796ZM8.01277 14.1593C8.01277 14.8445 8.57343 15.4052 9.25867 15.4052H19.2259C19.9111 15.4052 20.4718 14.8445 20.4718 14.1593V6.68386C20.4718 5.9955 19.9111 5.43796 19.2259 5.43796H9.25867C8.57343 5.43796 8.01277 5.9955 8.01277 6.68386V14.1593Z" fill="url(#paint0_linear_12_176)"/>
<defs>
<linearGradient id="paint0_linear_12_176" x1="20.4718" y1="0.454346" x2="20.4718" y2="40.3232" gradientUnits="userSpaceOnUse">
<stop stop-color="#21429B"/>
<stop offset="1" stop-color="#4BB6E7"/>
</linearGradient>
</defs>
</svg>
