<svg width="61" height="79" viewBox="0 0 61 79" fill="none" xmlns="http://www.w3.org/2000/svg">
<path d="M30.3447 0.226807C17.8151 0.226807 7.7268 10.1906 7.7268 22.5655V26.2886C3.58018 26.2886 0.1875 29.6394 0.1875 33.7348V70.9659C0.1875 75.0613 3.58018 78.4121 7.7268 78.4121H52.9626C57.1092 78.4121 60.5019 75.0613 60.5019 70.9659V33.7348C60.5019 29.6394 57.1092 26.2886 52.9626 26.2886V22.5655C52.9626 10.1906 42.8743 0.226807 30.3447 0.226807ZM30.3447 7.67302C38.9251 7.67302 45.4233 14.091 45.4233 22.5655V26.2886H15.2661V22.5655C15.2661 14.091 21.7642 7.67302 30.3447 7.67302ZM30.3447 44.9041C34.4913 44.9041 37.884 48.2549 37.884 52.3503C37.884 56.4458 34.4913 59.7966 30.3447 59.7966C26.1981 59.7966 22.8054 56.4458 22.8054 52.3503C22.8054 48.2549 26.1981 44.9041 30.3447 44.9041Z" fill="white"/>
</svg>
