<svg width="45" height="45" viewBox="0 0 45 45" fill="none" xmlns="http://www.w3.org/2000/svg">
<path d="M44.2947 24.5991V20.6029H38.1605C37.8002 17.7621 36.6821 15.0705 34.9236 12.8104L39.2995 8.47451L36.4422 5.61724L32.1063 9.99306C29.8462 8.23457 27.1546 7.11652 24.3138 6.75615V0.622009H20.3176V6.75615C17.4803 7.11581 14.7829 8.23474 12.525 9.99306L8.18917 5.61724L5.3319 8.47451L9.70772 12.8104C7.94923 15.0705 6.83118 17.7621 6.47081 20.6029H0.33667V24.5991H6.47081C6.83047 27.4364 7.9494 30.1338 9.70772 32.3917L5.3319 36.7275L8.18917 39.5848L12.525 35.209C14.7829 36.9673 17.4803 38.0862 20.3176 38.4459V44.58H24.3138V38.4459C27.1511 38.0862 29.8485 36.9673 32.1063 35.209L36.4422 39.5848L39.2995 36.7275L34.9236 32.3917C36.6821 30.1316 37.8002 27.44 38.1605 24.5991H44.2947ZM22.3157 14.6086C20.196 14.6086 18.1631 15.4507 16.6642 16.9496C15.1654 18.4484 14.3233 20.4813 14.3233 22.601H10.3271C10.3271 19.4215 11.5902 16.3721 13.8385 14.1238C16.0868 11.8755 19.1361 10.6125 22.3157 10.6125V14.6086Z" fill="url(#paint0_linear_12_175)"/>
<defs>
<linearGradient id="paint0_linear_12_175" x1="22.3157" y1="0.622009" x2="22.3157" y2="44.58" gradientUnits="userSpaceOnUse">
<stop stop-color="#22449C"/>
<stop offset="1" stop-color="#4BB6E7"/>
</linearGradient>
</defs>
</svg>
