<svg width="147" height="165" viewBox="0 0 147 165" fill="none" xmlns="http://www.w3.org/2000/svg">
<path d="M146.234 44.9539C146.444 47.2177 144.431 91.361 144.064 92.7288C143.831 92.6607 143.57 92.6395 143.372 92.517C142.312 91.8614 141.268 91.1804 140.129 90.4523C140.449 83.256 140.775 76.0754 141.087 68.8936C141.397 61.7713 141.696 54.6499 142.007 47.3547C136.546 43.8609 131.084 40.3658 125.375 36.7134C124.606 53.4569 123.911 69.9896 123.176 86.5926C130.144 91.0436 137.036 95.446 144.002 99.8957C143.597 108.968 143.195 117.951 142.798 126.815C141.604 127.78 104.52 147.274 101.111 148.756C100.847 148.871 100.542 148.893 100.072 149C99.9698 147.382 100.083 145.92 100.291 144.269C103.41 142.55 106.651 140.933 109.857 139.255C113.02 137.6 116.191 135.961 119.359 134.315C122.582 132.64 125.806 130.965 129.029 129.29C132.191 127.647 135.354 126.004 138.631 124.301C138.919 117.838 139.201 111.428 139.495 104.821C124.608 112.556 109.905 120.195 95.0931 127.891C94.7247 135.975 94.3539 144.087 93.9884 152.097C92.803 153.148 72.295 163.936 69.7587 164.843C56.4809 156.357 43.0713 147.786 29.4844 139.102C29.9563 138.778 30.1896 138.584 30.4512 138.445C31.496 137.888 32.5487 137.35 33.7144 136.744C45.8178 144.474 57.8777 152.177 69.95 159.887C75.8042 156.845 81.5622 153.853 87.4869 150.775C73.4439 141.8 59.5451 132.917 45.5966 124.002C38.3043 127.791 31.0906 131.539 23.9785 135.234C22.596 134.76 3.03806 122.436 0.735711 120.616C1.43698 104.84 2.1437 88.9762 2.85724 72.933C4.49371 73.5283 5.6849 74.4857 7.02111 75.4109C6.38932 89.7131 5.75689 104.017 5.11913 118.464C10.5423 121.931 15.9572 125.392 21.5536 128.97C21.6712 128.401 21.8073 128.014 21.8252 127.621C22.4256 114.431 23.0145 101.242 23.6047 88.053C23.7059 85.8028 23.805 83.5519 23.9015 81.3024C23.9281 80.6811 23.9383 80.0614 23.9612 79.2441C17.1681 74.7439 10.1799 70.4878 3.16321 65.892C3.56087 56.9138 3.96238 47.8734 4.37092 38.7141C18.3226 31.465 32.2058 24.2499 46.096 17.0448C46.3535 16.911 46.6716 16.8937 47.1385 16.7785C47.1955 18.389 47.0753 19.8539 46.9491 21.2412C45.5203 22.4104 16.4904 37.6658 8.59829 41.4102C8.16565 47.7701 8.04996 54.2596 7.68267 60.6922C7.77066 60.7721 7.80425 60.8235 7.84891 60.8399C7.90522 60.8588 7.97844 60.8672 8.02936 60.846C8.26156 60.7528 8.49518 60.6624 8.71611 60.5476C23.1077 53.0718 37.4985 45.5946 52.0263 38.0462C52.4016 29.8799 52.7769 21.7101 53.1547 13.4754C61.183 9.30399 69.1666 5.15585 77.3075 0.926014C90.6687 9.46008 104.048 18.0055 117.573 26.6456C116.298 27.8295 114.84 28.3113 113.376 29.0309C101.31 21.3277 89.2492 13.6257 77.1472 5.89845C71.3662 8.90215 65.657 11.8685 59.8096 14.9067C60.1221 15.1901 60.3845 15.5064 60.715 15.7184C71.2579 22.4625 81.8067 29.195 92.3535 35.9302C95.0954 37.6824 97.8334 39.4401 100.575 41.1909C100.886 41.3903 101.212 41.5689 101.628 41.8138C108.897 38.0368 116.165 34.2605 123.504 30.4476C131.153 35.3306 138.737 40.1702 146.234 44.9539ZM54.1055 41.9652C39.3148 49.6502 24.6691 57.2598 9.75915 65.0067C15.34 68.5983 20.7412 72.0596 26.2638 75.5456C39.0606 68.8966 51.8263 62.2638 64.577 55.6387C66.0453 56.404 67.3822 57.1085 68.6935 58.3236C55.1038 65.3846 41.7309 72.3329 28.2712 79.3263C27.5307 95.9669 26.7942 112.513 26.0502 129.239C31.9871 126.155 37.7397 123.166 43.5871 120.127C44.2215 105.774 44.8565 91.4151 45.4911 77.0719C46.8873 76.2672 48.0816 75.3886 49.8191 75.052C49.575 82.6924 49.1671 90.1666 48.8569 97.6434C48.5438 105.197 48.2034 112.749 47.874 120.308C48.8818 120.982 49.7526 121.584 50.6434 122.156C55.1732 125.06 59.7096 127.953 64.2434 130.851C72.3099 136.007 80.3736 141.163 88.4447 146.311C88.8794 146.587 89.3708 146.778 89.9505 147.065C90.242 140.414 90.5246 133.987 90.8067 127.523C78.617 119.733 66.5094 111.995 54.428 104.274C54.553 102.633 54.366 101.143 54.8383 99.4781C67.6647 107.662 80.3531 115.759 92.9379 123.79C96.5672 122.264 136.066 101.594 137.201 100.628C131.812 97.1862 126.44 93.7559 120.959 90.2557C120.267 90.6148 119.609 90.9571 118.95 91.2994C107.448 97.2758 95.9458 103.254 84.4407 109.225C83.7873 109.564 83.1009 109.84 82.4483 110.138C81.1034 109.269 79.7154 108.708 78.5256 107.398C79.3134 106.96 79.9416 106.589 80.5895 106.252C92.7018 99.9553 104.816 93.6613 116.929 87.3672C117.585 87.0264 118.241 86.6855 118.911 86.3376C119.632 69.7068 120.35 53.2503 121.075 36.6194C115.074 39.7372 109.318 42.7283 103.554 45.7228C103.224 52.9896 102.895 60.1737 102.572 67.3577C102.249 74.5293 102.02 81.7044 101.602 88.8448C100.135 89.5556 99.008 90.5677 97.2814 90.7266C97.9477 75.5236 98.6064 60.4846 99.2663 45.4347C85.2792 36.4979 71.3784 27.6178 57.2037 18.5616C56.9002 25.3621 56.6121 31.8345 56.3237 38.2898C68.5016 46.0705 80.5664 53.7792 92.6319 61.4893C92.6434 63.1182 92.7694 64.6429 92.2776 66.3268C79.4264 58.1249 66.7297 50.0217 54.1055 41.9652Z" fill="url(#paint0_linear_12_75)"/>
<defs>
<linearGradient id="paint0_linear_12_75" x1="97.4556" y1="7.29324" x2="49.6739" y2="158.497" gradientUnits="userSpaceOnUse">
<stop stop-color="#20419A"/>
<stop offset="0.4944" stop-color="#4366B0"/>
<stop offset="1" stop-color="#4BBBEB"/>
</linearGradient>
</defs>
</svg>
