<svg width="363" height="493" viewBox="0 0 363 493" fill="none" xmlns="http://www.w3.org/2000/svg">
<path d="M437.163 132.445C437.796 139.246 431.747 271.855 430.645 275.964C429.944 275.76 429.161 275.696 428.566 275.328C425.381 273.359 422.245 271.313 418.823 269.125C419.784 247.507 420.764 225.936 421.702 204.362C422.633 182.966 423.53 161.572 424.467 139.657C408.061 129.162 391.653 118.662 374.503 107.69C372.191 157.989 370.103 207.654 367.897 257.53C388.827 270.902 409.532 284.127 430.46 297.494C429.241 324.747 428.034 351.734 426.842 378.363C423.255 381.261 311.852 439.821 301.611 444.274C300.818 444.618 299.901 444.686 298.49 445.006C298.183 440.145 298.524 435.755 299.147 430.794C308.518 425.63 318.255 420.773 327.886 415.732C337.388 410.759 346.914 405.835 356.43 400.891C366.113 395.86 375.796 390.829 385.479 385.798C394.979 380.862 404.478 375.926 414.324 370.811C415.188 351.394 416.038 332.139 416.92 312.289C372.198 335.526 328.031 358.474 283.533 381.594C282.426 405.878 281.313 430.248 280.215 454.31C276.654 457.468 215.046 489.876 207.427 492.6C167.54 467.107 127.256 441.359 86.4402 415.273C87.8576 414.299 88.5588 413.717 89.3445 413.299C92.4833 411.627 95.6455 410.009 99.1473 408.19C135.507 431.411 171.735 454.551 208.002 477.712C225.588 468.574 242.885 459.587 260.684 450.339C218.497 423.378 176.745 396.693 134.842 369.91C112.936 381.293 91.2653 392.552 69.9001 403.653C65.7469 402.228 6.99354 365.207 0.0770966 359.738C2.18376 312.348 4.30683 264.691 6.45029 216.496C11.3664 218.285 14.9448 221.161 18.9589 223.94C17.061 266.905 15.1611 309.876 13.2452 353.274C29.5368 363.689 45.8036 374.086 62.6155 384.836C62.9688 383.127 63.3777 381.963 63.4313 380.783C65.2351 341.16 67.0041 301.54 68.7771 261.918C69.0811 255.158 69.379 248.396 69.6687 241.639C69.7486 239.772 69.7794 237.911 69.8482 235.455C49.4411 221.936 28.448 209.151 7.36946 195.345C8.56411 168.374 9.77025 141.216 10.9975 113.7C52.9093 91.9236 94.6154 70.2487 136.342 48.6043C137.116 48.2023 138.072 48.1505 139.474 47.8043C139.645 52.6422 139.284 57.0431 138.905 61.2104C134.613 64.7228 47.4054 110.551 23.6968 121.8C22.3972 140.905 22.0496 160.4 20.9462 179.724C21.2106 179.964 21.3115 180.119 21.4456 180.168C21.6148 180.225 21.8348 180.25 21.9877 180.186C22.6853 179.906 23.387 179.635 24.0508 179.29C67.284 156.832 110.515 134.37 154.157 111.694C155.285 87.1616 156.413 62.6191 157.547 37.8814C181.665 25.3503 205.648 12.889 230.104 0.182315C270.242 25.8192 310.434 51.4902 351.063 77.4457C347.233 81.0022 342.855 82.4496 338.456 84.6114C302.21 61.4703 265.978 38.3331 229.622 15.1199C212.256 24.1432 195.105 33.0544 177.539 42.1814C178.478 43.0326 179.266 43.9826 180.259 44.6196C211.93 64.8795 243.62 85.1043 275.303 105.337C283.54 110.601 291.765 115.881 300 121.141C300.937 121.74 301.914 122.276 303.165 123.012C325.002 111.666 346.836 100.321 368.881 88.8671C391.861 103.536 414.644 118.075 437.163 132.445ZM160.404 123.467C115.971 146.553 71.9747 169.413 27.1841 192.685C43.9494 203.475 60.1751 213.872 76.7652 224.345C115.208 204.37 153.557 184.445 191.861 164.543C196.272 166.842 200.288 168.958 204.227 172.609C163.402 193.82 123.229 214.694 82.7957 235.702C80.5711 285.692 78.3586 335.396 76.1237 385.644C93.9585 376.378 111.24 367.399 128.806 358.272C130.711 315.153 132.619 272.018 134.525 228.93C138.72 226.512 142.307 223.873 147.527 222.862C146.794 245.814 145.568 268.267 144.637 290.728C143.696 313.421 142.673 336.105 141.684 358.813C144.711 360.838 147.327 362.648 150.003 364.365C163.611 373.088 177.239 381.78 190.859 390.487C215.091 405.973 239.315 421.464 263.561 436.928C264.867 437.759 266.343 438.331 268.084 439.194C268.96 419.213 269.809 399.907 270.657 380.489C234.038 357.087 197.666 333.841 161.372 310.647C161.748 305.717 161.186 301.242 162.605 296.24C201.136 320.824 239.253 345.149 277.059 369.273C287.962 364.689 406.619 302.597 410.029 299.693C393.839 289.355 377.703 279.05 361.235 268.535C359.158 269.614 357.18 270.642 355.201 271.67C320.647 289.624 286.095 307.581 251.532 325.519C249.57 326.538 247.508 327.367 245.547 328.261C241.507 325.651 237.338 323.966 233.763 320.033C236.13 318.715 238.017 317.6 239.963 316.589C276.35 297.673 312.74 278.765 349.13 259.858C351.101 258.834 353.072 257.81 355.083 256.765C357.251 206.805 359.406 157.368 361.584 107.408C343.558 116.774 326.264 125.759 308.951 134.755C307.96 156.585 306.969 178.166 305.999 199.748C305.031 221.292 304.342 242.846 303.086 264.296C298.678 266.432 295.294 269.472 290.107 269.949C292.109 224.278 294.087 179.1 296.07 133.89C254.052 107.043 212.293 80.3661 169.711 53.1608C168.799 73.5899 167.934 93.0334 167.067 112.426C203.651 135.799 239.894 158.957 276.14 182.119C276.174 187.012 276.553 191.592 275.075 196.651C236.469 172.012 198.328 147.669 160.404 123.467Z" fill="url(#paint0_linear_12_36)"/>
<defs>
<linearGradient id="paint0_linear_12_36" x1="290.63" y1="19.3099" x2="147.091" y2="473.537" gradientUnits="userSpaceOnUse">
<stop stop-color="#20419A"/>
<stop offset="0.4944" stop-color="#4366B0"/>
<stop offset="1" stop-color="#4BBBEB"/>
</linearGradient>
</defs>
</svg>
