<svg width="41" height="41" viewBox="0 0 41 41" fill="none" xmlns="http://www.w3.org/2000/svg">
<path d="M3.02916 5.19296C3.02916 2.4403 5.2601 0.209351 8.01277 0.209351H20.4718C23.2206 0.209351 25.4554 2.4403 25.4554 5.19296V20.1438H26.0784C29.8628 20.1438 32.9308 23.2118 32.9308 26.9963V29.4881C32.9308 30.5237 33.764 31.3569 34.7997 31.3569C35.8353 31.3569 36.6685 30.5237 36.6685 29.4881V17.4262C34.5194 16.9434 32.9308 14.9889 32.9308 12.6684V7.68477L30.439 5.19296C29.7538 4.5046 29.7538 3.38952 30.439 2.70116C31.1243 2.01279 32.2456 2.01279 32.9308 2.70116L38.9501 8.72042C39.8845 9.65485 40.4062 10.9163 40.4062 12.2401V29.4881C40.4062 32.5873 37.8989 35.0946 34.7997 35.0946C31.7005 35.0946 29.1931 32.5873 29.1931 29.4881V26.9963C29.1931 25.2754 27.7993 23.8114 26.0784 23.8114H25.4554V35.0946C26.8337 35.0946 27.9472 36.2082 27.9472 37.5864C27.9472 38.9647 26.8337 40.0782 25.4554 40.0782H3.02916C1.65322 40.0782 0.537354 38.9647 0.537354 37.5864C0.537354 36.2082 1.65322 35.0946 3.02916 35.0946V5.19296ZM8.01277 13.9143C8.01277 14.5995 8.57343 15.1602 9.25867 15.1602H19.2259C19.9111 15.1602 20.4718 14.5995 20.4718 13.9143V6.43887C20.4718 5.7505 19.9111 5.19296 19.2259 5.19296H9.25867C8.57343 5.19296 8.01277 5.7505 8.01277 6.43887V13.9143Z" fill="url(#paint0_linear_12_193)"/>
<defs>
<linearGradient id="paint0_linear_12_193" x1="20.4718" y1="0.209351" x2="20.4718" y2="40.0782" gradientUnits="userSpaceOnUse">
<stop stop-color="#21429B"/>
<stop offset="1" stop-color="#4BB6E7"/>
</linearGradient>
</defs>
</svg>
