<svg width="166" height="185" viewBox="0 0 166 185" fill="none" xmlns="http://www.w3.org/2000/svg">
<path d="M76.8057 0.022117C79.2335 0.835042 123.792 22.9902 125.034 23.9904C124.858 24.1998 124.717 24.4586 124.501 24.6068C123.343 25.4007 122.167 26.1665 120.898 27.0088C113.631 23.4056 106.382 19.8029 99.1258 16.2145C91.9299 12.655 84.7296 9.10782 77.3562 5.46823C71.2728 9.50473 65.1877 13.5413 58.8282 17.7608C75.7264 26.1704 92.4413 34.4071 109.211 42.7162C116.966 37.5637 124.636 32.4664 132.389 27.314C141.55 31.8588 150.621 36.3593 159.572 40.8003C160.023 42.4695 163.235 89.5389 163.211 93.7253C163.209 94.0494 163.093 94.3739 162.989 94.9062C161.276 94.2754 159.822 93.4938 158.215 92.5289C157.863 88.5334 157.672 84.4589 157.402 80.3929C157.136 76.3817 156.89 72.3693 156.635 68.3574C156.376 64.2751 156.117 60.1928 155.858 56.1105C155.604 52.1055 155.35 48.1004 155.087 43.9495C148.559 40.713 142.085 37.5058 135.412 34.1976C136.608 53.052 137.789 71.6729 138.979 90.4329C147.139 94.4897 155.327 98.5619 163.412 102.582C163.956 104.282 165.74 130.315 165.52 133.34C150.738 143.158 135.809 153.073 120.683 163.119C120.563 162.486 120.47 162.157 120.446 161.825C120.348 160.495 120.272 159.166 120.178 157.689C133.647 148.738 147.068 139.818 160.502 130.889C160.032 123.475 159.569 116.182 159.093 108.678C143.46 119.062 127.986 129.339 112.457 139.652C113.043 148.888 113.622 158.024 114.194 167.032C113.076 168.24 91.4839 182.782 88.5612 184.325C72.6293 176.427 56.6084 168.482 40.4061 160.449C41.7638 159.034 43.292 158.242 44.8528 157.287C59.2988 164.444 73.7466 171.602 88.3384 178.831C94.377 174.821 100.406 170.818 106.638 166.68C106.105 166.3 105.768 165.984 105.371 165.787C92.0572 159.168 78.7386 152.562 65.4199 145.954C63.1479 144.826 60.8743 143.7 58.6009 142.578C57.973 142.267 57.3393 141.975 56.5077 141.58C48.7816 146.53 41.2183 151.793 33.292 156.931C24.2241 152.437 15.0938 147.911 5.84411 143.323C4.72317 125.653 3.60597 108.07 2.50239 90.483C2.4817 90.1568 2.6086 89.8213 2.70228 89.2879C4.38719 89.9619 5.84168 90.7521 7.21334 91.5131C7.7678 93.5169 10.2774 130.362 10.5446 140.195C16.8994 143.534 23.5319 146.605 29.9914 149.91C30.1137 149.855 30.1819 149.844 30.2191 149.806C30.2642 149.756 30.3062 149.685 30.3075 149.622C30.3172 149.341 30.3303 149.059 30.3126 148.779C29.1581 130.553 28.0018 112.327 26.8346 93.9275C18.5928 89.826 10.3475 85.7229 2.03632 81.5878C1.39129 71.4198 0.749852 61.3085 0.0957841 50.9981C14.9652 41.1162 29.8544 31.2211 44.9074 21.219C45.547 23.0709 45.3804 24.7913 45.4556 26.6273C32.0315 35.5522 18.6107 44.4735 5.14521 53.4252C5.60968 60.7469 6.06838 67.9776 6.53819 75.3834C6.97224 75.1904 7.4174 75.0639 7.78618 74.8199C19.5296 67.0271 31.2637 59.2229 42.9997 51.4219C46.0521 49.3944 49.1082 47.3735 52.1588 45.3461C52.5061 45.1155 52.838 44.8618 53.2797 44.5442C52.6956 35.3376 52.1117 26.1327 51.5221 16.8385C60.0322 11.1796 68.4677 5.56845 76.8057 0.022117ZM31.8176 93.5683C33.0059 112.301 34.1826 130.85 35.3805 149.733C41.6192 145.618 47.6418 141.628 53.7451 137.525C52.7169 121.318 51.6913 105.15 50.6668 89.0012C52.1231 87.8368 53.457 86.78 55.3053 85.982C56.3972 103.194 57.4716 120.13 58.553 137.177C75.3584 145.51 92.0678 153.795 108.96 162.171C108.483 154.651 108.021 147.366 107.551 139.96C93.0539 132.777 78.5509 125.591 64.0639 118.413C63.8702 116.608 63.5083 114.978 63.952 113.035C71.7117 116.762 79.2257 120.583 86.7868 124.303C94.4262 128.062 102.05 131.848 109.687 135.626C110.84 134.894 111.857 134.271 112.851 133.614C117.903 130.268 122.947 126.911 127.995 123.559C136.975 117.595 145.956 111.634 154.93 105.661C155.413 105.339 155.832 104.919 156.392 104.453C149.673 101.127 143.181 97.9122 136.65 94.6811C123.08 103.695 109.601 112.647 96.1517 121.581C94.5178 120.705 92.8983 120.22 91.3978 118.976C105.663 109.486 119.776 100.098 133.774 90.7873C133.853 86.3543 130.529 36.262 130.049 34.6533C124.052 38.6395 118.075 42.6124 111.976 46.6671C112.031 47.5426 112.084 48.3769 112.137 49.2112C113.061 63.7791 113.987 78.3468 114.904 92.9151C114.957 93.7425 114.929 94.5751 114.938 95.3828C113.431 96.3729 112.222 97.5476 110.332 98.1777C110.239 97.1667 110.142 96.3506 110.09 95.5301C109.114 80.1882 108.14 64.8462 107.167 49.5041C107.114 48.6732 107.062 47.8424 107.008 46.9943C90.2038 38.6857 73.5775 30.4605 56.7751 22.1483C57.2572 29.7481 57.7197 37.0389 58.1828 44.3383C65.5186 47.9837 72.7693 51.5914 80.0229 55.1921C87.2642 58.7866 94.5511 62.2869 101.717 65.9655C101.781 67.8005 102.312 69.4215 101.69 71.2725C86.3316 63.6701 71.1389 56.1504 55.9354 48.6244C40.3664 58.9677 24.8951 69.248 9.1178 79.7304C15.9852 83.1366 22.5217 86.3777 29.0404 89.6113C42.5955 80.6057 56.0249 71.6839 69.4561 62.762C71.1393 63.4911 72.7673 64.0549 74.2782 65.3276C59.983 74.8352 45.8598 84.2285 31.8176 93.5683Z" fill="url(#paint0_linear_12_24)"/>
<defs>
<linearGradient id="paint0_linear_12_24" x1="15.8204" y1="33.139" x2="149.847" y2="151.144" gradientUnits="userSpaceOnUse">
<stop stop-color="#395EC2"/>
<stop offset="0.4944" stop-color="#4366B0"/>
<stop offset="1" stop-color="#4BBBEB"/>
</linearGradient>
</defs>
</svg>
