<svg width="68" height="60" viewBox="0 0 68 60" fill="none" xmlns="http://www.w3.org/2000/svg">
<path d="M64.3852 1.23289C63.7336 -0.20671 61.8718 -0.264295 61.0922 1.09469C57.4851 7.30226 51.0272 11.1719 43.6501 11.1719H34.3415C22.0075 11.1719 12.0007 21.0764 12.0007 33.2842C12.0007 34.0904 12.0938 34.862 12.1752 35.6452C19.5989 30.382 30.3155 25.9134 45.5119 25.9134C46.5358 25.9134 47.3736 26.7427 47.3736 27.7561C47.3736 28.7696 46.5358 29.5988 45.5119 29.5988C16.2594 29.5988 3.85562 47.3463 1.10956 54.0145C0.341599 55.8917 1.24919 58.0339 3.14583 58.8055C5.05411 59.5886 7.21837 58.6788 8.0096 56.8131C8.18414 56.3985 10.4415 51.2965 16.3758 46.3788C20.1458 51.4347 27.3134 56.2603 36.7268 55.2698C54.995 53.9569 67.8526 37.7412 67.8526 17.8862C67.8526 12.1048 66.596 6.11603 64.3852 1.23289Z" fill="white"/>
</svg>
